<svg width="1142" height="616" viewBox="0 0 1142 616" fill="none" xmlns="http://www.w3.org/2000/svg">
    <path
        d="M105.076 258.884C109.102 222.531 120.786 194.929 140.127 176.077C159.349 157.213 183.149 145.491 211.527 140.913C230.424 138.059 243.387 134.85 250.418 131.285C257.462 127.601 261.367 122.302 262.133 115.389L262.211 111.416L308.337 116.525C308.444 117.744 308.279 120.319 307.843 124.253C305.903 141.774 298.902 154.873 286.841 163.552C274.793 172.111 256.976 177.738 233.392 180.435C209.675 183.237 191.931 188.21 180.161 195.352C168.403 202.374 159.912 213.68 154.686 229.269C161.569 218.328 170.545 210.273 181.614 205.104C192.683 199.936 204.773 198.078 217.884 199.53C244.225 202.447 263.186 213.174 274.767 231.71C286.599 250.153 291.03 272.784 288.06 299.602C285.116 326.181 274.443 346.837 256.04 361.569C237.757 376.315 214.849 382.163 187.316 379.114C171.464 377.358 157.723 372.88 146.093 365.68C134.463 358.48 125.455 349.398 119.068 338.435C112.8 327.486 108.479 315.304 106.104 301.89C103.742 288.356 103.399 274.021 105.076 258.884ZM220.986 323.482C229.367 316.447 234.29 306.315 235.755 293.084C237.22 279.854 234.634 268.89 227.996 260.192C221.491 251.388 212.279 246.325 200.36 245.005C188.441 243.685 178.285 246.602 169.891 253.756C161.511 260.791 156.588 270.924 155.123 284.154C153.657 297.384 156.244 308.348 162.881 317.046C169.519 325.744 178.797 330.754 190.716 332.074C202.635 333.394 212.725 330.53 220.986 323.482ZM331.196 215.7L384.295 221.581L381.899 243.214C399.017 228.098 418.243 221.721 439.578 224.085C451.021 225.352 461.623 228.758 471.385 234.304C481.16 239.73 489.426 246.799 496.183 255.51C502.953 264.102 507.902 274.423 511.032 286.473C514.294 298.417 515.179 311.123 513.687 324.592C510.69 351.648 500.123 372.436 481.986 386.957C463.848 401.477 442.443 407.371 417.77 404.639C405.851 403.318 395.547 399.945 386.858 394.519C378.169 389.092 372.247 382.645 369.093 375.177L358.815 467.967L303.928 461.887L331.196 215.7ZM382.827 342.674C389.955 351.306 399.598 356.295 411.755 357.642C423.912 358.988 434.413 356.23 443.257 349.367C452.114 342.385 457.295 332.1 458.8 318.513C460.371 304.329 457.606 292.802 450.505 283.932C443.536 274.956 433.913 269.788 421.636 268.428C409.36 267.068 398.839 270.005 390.075 277.239C381.324 284.353 376.163 295.002 374.592 309.186C373.087 322.774 375.832 333.936 382.827 342.674ZM663.476 361.09L707.921 384.654C700.179 400.084 688.768 411.609 673.687 419.229C658.619 426.73 641.073 429.371 621.049 427.154C594.112 424.17 572.708 413.173 556.837 394.161C540.978 375.031 534.534 352.057 537.505 325.239C539.313 308.91 544.665 294.361 553.56 281.592C562.574 268.836 574.257 259.211 588.61 252.717C603.082 246.236 618.721 243.926 635.527 245.788C660.915 248.6 680.127 258.148 693.163 274.432C706.491 290.266 711.809 310.34 709.115 334.655C708.31 341.925 706.77 349.296 704.495 356.765L590.966 344.191C590.89 353.593 594.104 361.611 600.609 368.243C607.232 374.889 616.027 378.819 626.992 380.033C636.051 381.037 643.473 379.928 649.259 376.708C655.045 373.488 659.784 368.282 663.476 361.09ZM595.025 307.54L657.958 314.51C658.71 307.716 656.636 301.937 651.734 297.171C646.952 292.418 639.972 289.534 630.794 288.517C623.405 287.699 616.446 288.979 609.918 292.358C603.523 295.632 598.559 300.692 595.025 307.54ZM805.871 268.274L799.218 328.346L863.223 335.435L869.876 275.364L922.976 281.245L903.748 454.845L850.648 448.964L857.738 384.959L793.732 377.87L786.643 441.875L733.544 435.994L752.772 262.393L805.871 268.274ZM928.613 498.32L938.336 410.536L959.969 412.932C967.063 400.084 972.197 388.045 975.371 376.813C978.717 365.119 981.381 350.332 983.361 332.454L988.232 288.473L1127.68 303.918L1113.72 429.962L1137.15 432.556L1127.42 520.34L1079.87 515.072L1084.32 474.846L980.626 463.36L976.17 503.587L928.613 498.32ZM1009.67 418.437L1067.6 424.853L1076.89 341.003L1029.69 335.775L1028.32 348.111C1026.66 363.129 1024.4 375.85 1021.56 386.273C1018.72 396.696 1014.75 407.417 1009.67 418.437Z"
        fill="#1C1C1C" />
    <path
        d="M40.0758 578.884C44.1022 542.531 55.7861 514.929 75.1273 496.077C94.3494 477.213 118.149 465.491 146.527 460.913C165.424 458.059 178.387 454.85 185.418 451.285C192.462 447.601 196.367 442.302 197.133 435.389L197.211 431.416L243.337 436.525C243.444 437.744 243.279 440.319 242.843 444.253C240.903 461.774 233.902 474.873 221.841 483.552C209.793 492.111 191.976 497.738 168.392 500.435C144.675 503.237 126.931 508.21 115.161 515.352C103.403 522.374 94.912 533.68 89.6865 549.269C96.5689 538.328 105.545 530.273 116.614 525.104C127.683 519.936 139.773 518.078 152.884 519.53C179.225 522.447 198.186 533.174 209.767 551.71C221.599 570.153 226.03 592.784 223.06 619.602C220.116 646.181 209.443 666.837 191.04 681.569C172.757 696.315 149.849 702.163 122.316 699.114C106.464 697.358 92.7227 692.88 81.0929 685.68C69.4632 678.48 60.4549 669.398 54.068 658.435C47.8004 647.486 43.4789 635.304 41.1038 621.89C38.7419 608.356 38.3992 594.021 40.0758 578.884ZM155.986 643.482C164.367 636.447 169.29 626.315 170.755 613.084C172.22 599.854 169.634 588.89 162.996 580.192C156.491 571.388 147.279 566.325 135.36 565.005C123.441 563.685 113.285 566.602 104.891 573.756C96.5109 580.791 91.5881 590.924 90.1227 604.154C88.6573 617.384 91.2435 628.348 97.8812 637.046C104.519 645.744 113.797 650.754 125.716 652.074C137.635 653.394 147.725 650.53 155.986 643.482ZM266.196 535.7L319.295 541.581L316.899 563.214C334.017 548.098 353.243 541.721 374.578 544.085C386.021 545.352 396.623 548.758 406.385 554.304C416.16 559.73 424.426 566.799 431.183 575.51C437.953 584.102 442.902 594.423 446.032 606.473C449.294 618.417 450.179 631.123 448.687 644.592C445.69 671.648 435.123 692.436 416.986 706.957C398.848 721.477 377.443 727.371 352.77 724.639C340.851 723.318 330.547 719.945 321.858 714.519C313.169 709.092 307.247 702.645 304.093 695.177L293.815 787.967L238.928 781.887L266.196 535.7ZM317.827 662.674C324.955 671.306 334.598 676.295 346.755 677.642C358.912 678.988 369.413 676.23 378.257 669.367C387.114 662.385 392.295 652.1 393.8 638.513C395.371 624.329 392.606 612.802 385.505 603.932C378.536 594.956 368.913 589.788 356.636 588.428C344.36 587.068 333.839 590.005 325.075 597.239C316.324 604.353 311.163 615.002 309.592 629.186C308.087 642.774 310.832 653.936 317.827 662.674ZM598.476 681.09L642.921 704.654C635.179 720.084 623.768 731.609 608.687 739.229C593.619 746.73 576.073 749.371 556.049 747.154C529.112 744.17 507.708 733.173 491.837 714.161C475.978 695.031 469.534 672.057 472.505 645.239C474.313 628.91 479.665 614.361 488.56 601.592C497.574 588.836 509.257 579.211 523.61 572.717C538.082 566.236 553.721 563.926 570.527 565.788C595.915 568.6 615.127 578.148 628.163 594.432C641.491 610.266 646.809 630.34 644.115 654.655C643.31 661.925 641.77 669.296 639.495 676.765L525.966 664.191C525.89 673.593 529.104 681.611 535.609 688.243C542.232 694.889 551.027 698.819 561.992 700.033C571.051 701.037 578.473 699.928 584.259 696.708C590.045 693.488 594.784 688.282 598.476 681.09ZM530.025 627.54L592.958 634.51C593.71 627.716 591.636 621.937 586.734 617.171C581.952 612.418 574.972 609.534 565.794 608.517C558.405 607.699 551.446 608.979 544.918 612.358C538.523 615.632 533.559 620.692 530.025 627.54ZM740.871 588.274L734.218 648.346L798.223 655.435L804.876 595.364L857.976 601.245L838.748 774.845L785.648 768.964L792.738 704.959L728.732 697.87L721.643 761.875L668.544 755.994L687.772 582.393L740.871 588.274ZM863.613 818.32L873.336 730.536L894.969 732.932C902.063 720.084 907.197 708.045 910.371 696.813C913.717 685.119 916.381 670.332 918.361 652.454L923.232 608.473L1062.68 623.918L1048.72 749.962L1072.15 752.556L1062.42 840.34L1014.87 835.072L1019.32 794.846L915.626 783.36L911.17 823.587L863.613 818.32ZM944.671 738.437L1002.6 744.853L1011.89 661.003L964.686 655.775L963.319 668.111C961.656 683.129 959.402 695.85 956.559 706.273C953.715 716.696 949.753 727.417 944.671 738.437Z"
        fill="#1C1C1C" />
</svg>