<svg width="1306" height="805" viewBox="0 0 1306 805" fill="none" xmlns="http://www.w3.org/2000/svg">
    <path
        d="M532.08 377.988L590.745 422.035C570.969 458.563 544.063 484.129 510.028 498.733C476.177 513.23 438.064 514.801 395.689 503.447C358.848 493.575 329.405 476.478 307.361 452.154C285.317 427.831 272.562 399.129 269.096 366.049L217.984 352.354L231.621 301.46L271.593 312.171C271.848 310.054 272.912 305.501 274.785 298.511C276.619 291.667 277.955 287.265 278.792 285.304L238.82 274.594L252.515 223.482L304.501 237.411C324.906 211.352 350.827 193.248 382.264 183.098C414.507 172.853 447.739 172.315 481.959 181.484C521.859 192.175 552.227 210.769 573.064 237.267C593.94 263.618 603.776 293.02 602.572 325.473L528.924 337.344C530.224 314.437 525.066 294.951 513.452 278.885C501.837 262.818 485.109 251.859 463.266 246.006C449.286 242.26 435.512 241.535 421.943 243.83C408.374 246.125 396.093 251.184 385.101 259.008L466.356 280.78L452.661 331.892L350.655 304.56C347.965 312.267 346.484 316.63 346.211 317.65C345.899 318.815 344.98 323.407 343.456 331.426L445.462 358.759L431.825 409.652L351.006 387.997C357.012 400.532 365.39 411.204 376.139 420.015C387.034 428.865 399.471 435.163 413.45 438.909C439.371 445.854 462.461 443.848 482.721 432.889C503.167 421.823 519.62 403.523 532.08 377.988Z"
        fill="#1C1C1C" />
    <path
        d="M343.38 880.744L333.958 915.908L287.199 903.379L296.825 867.454C248.513 847.039 221.683 811.329 216.336 760.324L276.793 744.539C277.492 774.877 289.211 797.031 311.952 811.002L328.097 750.748C303.96 738.44 286.726 723.433 276.395 705.725C266.225 687.924 264.213 667.556 270.359 644.62C275.554 625.232 287.098 610.534 304.991 600.525C323.045 590.422 345.076 587.022 371.082 590.324L380.555 554.969L427.314 567.498L417.535 603.993C435.914 612.449 450.308 624.115 460.718 638.992C471.289 653.776 477.378 671.094 478.985 690.946L421.396 703.629C420.163 682.383 414.037 667.228 403.02 658.165L387.181 717.278C402.771 724.987 415.438 732.455 425.181 739.684C435.085 746.82 442.99 754.574 448.895 762.947C454.801 771.32 458.276 780.4 459.32 790.187C460.365 799.974 459.24 811.013 455.947 823.305C450.073 845.227 437.057 861.365 416.898 871.718C396.74 882.071 372.234 885.08 343.38 880.744ZM343.834 692.014L356.975 642.975C350.197 642.924 344.377 644.624 339.514 648.075C334.685 651.398 331.506 655.911 329.978 661.614C327.092 672.385 331.711 682.518 343.834 692.014ZM394.803 808.959C396.705 801.863 395.969 795.486 392.595 789.828C389.256 784.044 382.545 778.171 372.462 772.21L358.048 826.002C367.833 826.994 375.963 826.049 382.44 823.166C388.951 820.157 393.072 815.421 394.803 808.959Z"
        fill="#1C1C1C" />
    <path
        d="M1074.82 878.276L1008.71 860.562L1004.97 874.517L1073.87 892.979L1061.9 937.633L993.003 919.171L983.702 953.882L930.152 939.534L939.453 904.822L908.753 896.596L920.718 851.942L951.418 860.168L997.175 689.401L1116.83 721.464C1129.97 724.985 1141.33 730.272 1150.91 737.325C1160.49 744.378 1167.8 752.444 1172.84 761.523C1177.92 770.486 1181.06 780.176 1182.25 790.592C1183.48 800.892 1182.68 811.333 1179.84 821.915C1177.1 832.148 1172.55 841.46 1166.19 849.851C1159.94 858.274 1152.39 865.287 1143.54 870.891C1134.71 876.378 1124.3 879.883 1112.3 881.404C1100.34 882.809 1087.84 881.766 1074.82 878.276ZM1037.78 752.067L1021.61 812.42L1084.23 829.199C1094.58 831.972 1103.48 831.552 1110.92 827.94C1118.52 824.242 1123.61 817.567 1126.2 807.915C1128.79 798.264 1127.74 790.069 1123.06 783.332C1118.42 776.479 1110.86 771.651 1100.4 768.846L1037.78 752.067Z"
        fill="#1C1C1C" />
    <path
        d="M943.571 315.303L888.535 300.556L885.422 312.173L942.781 327.543L932.821 364.717L875.462 349.348L867.719 378.245L823.138 366.3L830.881 337.402L805.324 330.554L815.285 293.38L840.842 300.228L878.935 158.065L978.551 184.757C989.49 187.688 998.946 192.089 1006.92 197.961C1014.89 203.832 1020.98 210.547 1025.18 218.106C1029.4 225.568 1032.02 233.634 1033.01 242.306C1034.03 250.881 1033.37 259.573 1031.01 268.382C1028.72 276.902 1024.93 284.654 1019.64 291.639C1014.44 298.651 1008.15 304.489 1000.78 309.154C993.435 313.723 984.768 316.64 974.779 317.907C964.816 319.076 954.413 318.208 943.571 315.303ZM912.737 210.234L899.274 260.478L951.406 274.446C960.022 276.755 967.43 276.405 973.632 273.398C979.956 270.319 984.194 264.763 986.347 256.728C988.5 248.692 987.63 241.871 983.738 236.262C979.871 230.557 973.581 226.537 964.868 224.202L912.737 210.234Z"
        fill="#1C1C1C" />
    <path
        d="M1212.9 639.768L1204.7 670.378L1164 659.471L1172.38 628.2C1130.32 610.429 1106.97 579.344 1102.31 534.945L1154.94 521.205C1155.55 547.614 1165.75 566.898 1185.55 579.06L1199.6 526.61C1178.59 515.896 1163.59 502.833 1154.59 487.418C1145.74 471.924 1143.99 454.194 1149.34 434.228C1153.86 417.352 1163.91 404.557 1179.49 395.844C1195.2 387.051 1214.38 384.091 1237.02 386.965L1245.26 356.19L1285.97 367.096L1277.45 398.863C1293.45 406.224 1305.98 416.379 1315.04 429.329C1324.24 442.198 1329.54 457.273 1330.94 474.554L1280.81 485.594C1279.74 467.1 1274.41 453.908 1264.82 446.019L1251.03 497.475C1264.6 504.186 1275.63 510.687 1284.11 516.979C1292.73 523.19 1299.61 529.94 1304.75 537.229C1309.89 544.518 1312.92 552.422 1313.83 560.941C1314.74 569.46 1313.76 579.07 1310.89 589.769C1305.78 608.852 1294.45 622.899 1276.9 631.911C1259.35 640.923 1238.02 643.542 1212.9 639.768ZM1213.3 475.484L1224.74 432.796C1218.84 432.752 1213.77 434.232 1209.54 437.236C1205.33 440.129 1202.57 444.057 1201.24 449.021C1198.72 458.397 1202.74 467.218 1213.3 475.484ZM1257.67 577.281C1259.32 571.104 1258.68 565.553 1255.74 560.629C1252.84 555.594 1246.99 550.482 1238.22 545.292L1225.67 592.117C1234.19 592.98 1241.27 592.157 1246.9 589.648C1252.57 587.029 1256.16 582.907 1257.67 577.281Z"
        fill="#1C1C1C" />
</svg>