<svg  class="purp" width="845" height="587" viewBox="0 0 845 587" fill="none" xmlns="http://www.w3.org/2000/svg">
    <path
        d="M569.009 492.457L460.814 463.466L454.695 486.304L567.457 516.519L547.875 589.601L435.113 559.386L419.89 616.196L332.25 592.712L347.472 535.903L297.228 522.44L316.81 449.358L367.054 462.821L441.94 183.341L637.776 235.815C659.282 241.578 677.872 250.23 693.545 261.773C709.218 273.316 721.183 286.517 729.441 301.377C737.749 316.046 742.883 331.904 744.843 348.951C746.853 365.809 745.538 382.897 740.897 400.215C736.41 416.963 728.961 432.204 718.549 445.936C708.329 459.72 695.972 471.198 681.48 480.37C667.038 489.351 649.999 495.086 630.362 497.576C610.776 499.875 590.325 498.169 569.009 492.457ZM508.393 285.901L481.926 384.675L584.412 412.136C601.35 416.675 615.915 415.988 628.106 410.075C640.538 404.023 648.871 393.099 653.104 377.303C657.336 361.507 655.626 348.096 647.973 337.07C640.372 325.854 628.007 317.951 610.878 313.362L508.393 285.901Z"
        fill="#1C1C1C" />
</svg>