<svg width="214" height="245" viewBox="0 0 214 245" fill="none" xmlns="http://www.w3.org/2000/svg">
<path d="M118.839 83.5962C116.458 86.2521 114.709 90.0989 113.767 93.488C111.746 100.758 112.034 109.763 114.499 116.879C116.697 123.223 121.344 127.637 128.332 126.146C133.821 124.974 139.765 120.927 142.431 115.894C145.072 110.908 143.125 105.259 139.981 101.037C135.731 95.3298 129.244 91.6866 122.061 91.5309C111.835 91.3092 102.037 96.8589 93.2911 101.449C85.6836 105.442 78.2732 109.776 70.7517 113.924C65.283 116.939 59.7565 120.041 53.8038 122.018C50.6625 123.062 45.4794 124.621 45.0569 119.808C44.5413 113.934 46.8729 107.015 49.2773 101.782C59.0796 80.4477 84.2648 98.8215 96.26 107.747C107.337 115.989 118.23 124.476 130.275 131.298C140.596 137.143 152.387 142.746 164.531 142.761C172.635 142.77 180.969 139.59 185.299 132.416C190.243 124.227 187.574 114.609 181.612 107.773C170.1 94.5747 150.023 93.6675 135.281 101.636C127.259 105.972 120.056 113.004 116.123 121.299C112.137 129.708 111.407 140.665 118.467 147.74C124.29 153.576 133.562 154.509 141.339 154.583C149.88 154.664 160.033 153.88 167.193 148.645C173.056 144.359 174.407 137.051 173.73 130.233C173.001 122.895 169.564 117.647 163.372 113.777C155.274 108.716 146.006 105.164 137.132 101.756C124.677 96.972 111.529 92.2173 98.1105 91.278C89.5269 90.6771 80.615 92.0999 73.5208 97.2556C66.5207 102.343 61.5187 110.481 58.9827 118.663C56.9919 125.086 56.9549 131.816 61.3525 137.262C66.4045 143.518 74.6341 146.72 82.4674 147.42C90.2196 148.113 98.8825 146.456 104.834 141.136C111.615 135.075 111.481 125.557 109.68 117.345C108.374 111.394 106.246 105.334 103.369 99.9449C101.933 97.2538 100.089 95.3719 97.4315 93.9007C93.5116 91.7307 89.2327 90.3263 84.9703 89.0014C77.7039 86.7427 70.3478 84.9404 62.7637 84.182C60.472 83.9528 56.9565 84.4664 54.8689 83.2633C52.8154 82.08 54.5315 79.036 55.4413 77.7117C59.7188 71.4861 67.2928 67.9042 74.1199 65.3303C90.1795 59.2756 108.619 56.5166 125.696 58.7935C136.699 60.2606 147.005 65.0004 154.04 73.8242C160.754 82.2467 163.332 93.2798 164.797 103.713C165.968 112.055 166.449 120.767 165.782 129.181C165.57 131.851 165.202 134.641 164.264 137.169C164.018 137.834 163.245 139.266 162.8 138.713C162.466 138.299 162.29 136.771 162.267 136.477C162.06 133.765 162.302 130.996 163.066 128.382C165.014 121.721 170.296 116.999 175.288 112.513C181.228 107.175 187.728 102.308 192.915 96.1906C194.866 93.8892 200.361 87.6052 196.656 84.5947C195.448 83.6137 194.027 83.1127 192.568 82.6243C188.425 81.2368 184.052 80.4015 179.734 79.7886C169.853 78.3857 159.647 78.0591 149.74 79.3758C139.38 80.7527 129.125 83.8288 120.091 89.1611C110.646 94.736 103.523 102.543 95.8073 110.143C91.7725 114.117 87.3495 118.143 81.9881 120.221C77.2956 122.04 71.8648 122.459 66.9707 121.22C60.6295 119.614 54.9796 115.58 50.2358 111.221C46.8114 108.075 43.6842 104.554 41.1961 100.611C39.571 98.0352 37.4163 94.4813 37.7213 91.2513C38.2836 85.2973 47.9533 84.6533 52.1929 84.608C65.9501 84.4609 79.253 89.3782 91.5471 95.0856C107.867 102.662 122.974 112.394 137.798 122.524C145.212 127.591 152.495 132.873 160.19 137.515C165.757 140.872 171.663 144.136 178.057 145.636C195.495 149.729 210.825 135.195 212.725 118.397C213.446 112.016 212.283 105.127 207.932 100.185C202.132 93.596 192.277 91.0118 183.808 90.9451C173.823 90.8665 164.269 94.5801 155.504 99.0662C144.609 104.643 134.876 112.09 125.35 119.702C113.161 129.441 101.017 142.934 84.3046 143.227C70.549 143.467 59.3977 136.125 53.258 123.962C49.8087 117.129 46.6468 108.48 48.0391 100.69C49.8467 90.578 60.0629 87.4375 69.1807 88.5487C82.8476 90.2143 95.6202 98.726 106.445 106.642C116.966 114.335 126.452 123.867 138.357 129.5C149.427 134.74 162.175 136.856 174.356 135.984C184.615 135.25 198.066 131.814 204.045 122.498C207.903 116.485 206.771 108.516 204.391 102.182C201.362 94.1222 195.736 87.6865 189.04 82.4246C181.303 76.3436 172.533 72.6914 162.747 71.481C148.63 69.7352 133.693 72.0992 120.064 75.7679C102.314 80.5462 80.4475 89.598 81.4289 111.528C81.7647 119.03 85.9986 125.709 92.6521 129.181C100.919 133.495 112 133.833 121.089 133.268C127.751 132.854 135.073 131.443 139.262 125.666C141.803 122.162 141.958 117.734 140.473 113.804C139.621 111.548 138.482 109.168 135.694 109.557C133.02 109.93 130.4 111.189 127.959 112.246C124.079 113.927 120.231 115.65 116.283 117.172C110.573 119.375 104.694 121.692 98.6963 122.99C96.5235 123.461 92.7612 124.35 91.1477 122.152C90.7196 121.568 90.1698 120.136 89.9228 119.542C88.9087 117.105 87.9034 114.719 86.4214 112.513C84.6928 109.94 78.956 102.837 75.0652 105.656C71.5544 108.2 71.2982 115.023 71.3641 118.823C71.4914 126.172 73.9565 133.34 80.3106 137.568C87.8686 142.598 98.5261 143.583 107.283 142.122C117.857 140.357 129.948 134.703 134.256 124.149C137.437 116.357 134.491 107.445 130.302 100.677C125.535 92.9749 118.334 87.3416 109.973 83.9689C101.913 80.7179 92.9839 79.401 84.3445 80.4143C81.1568 80.7882 77.6234 81.4362 74.8522 83.1968C73.8792 83.8149 72.7102 85.0394 74.0933 85.9393C75.2983 86.7233 77.0742 86.938 78.3935 87.0976C83.0924 87.666 87.9484 87.5091 92.6387 86.9511C101.83 85.8577 110.75 83.0836 118.853 78.6037C122.747 76.4502 126.043 73.3659 129.889 71.2148C133.187 69.3708 134.32 78.4759 134.656 79.9749C136.319 87.3981 137.007 94.7756 135.854 102.328C135.339 105.703 134.929 107.045 134.269 110.329C133.778 112.777 132.869 116.031 133.804 118.53C135.353 122.674 141.038 120.817 143.775 119.422C149.276 116.619 153.892 111.685 156.276 105.989C156.921 104.448 157.141 103.598 157.448 102.022C157.601 101.236 157.474 98.9432 157.847 99.652C158.125 100.179 157.937 100.841 157.954 101.436C158.05 104.769 158.08 108.103 157.914 111.434C157.468 120.413 155.708 129.25 155.052 138.207C154.745 142.394 154.599 146.691 155.544 150.815C156.035 152.958 156.908 155.639 159.232 156.5C164.254 158.359 169.479 152.718 172.292 149.524C178.859 142.069 183.329 132.985 186.018 123.456C188.539 114.526 189.435 104.832 188.708 95.5782C188.381 91.4226 187.532 87.1142 183.076 85.8195C178.949 84.6201 174.556 84.4921 170.388 83.3299C161.554 80.8662 153.102 77.0689 144.574 73.7443C134.468 69.8049 123.896 65.356 112.955 64.5315C99.8616 63.5448 89.1307 69.9482 78.5799 76.9129C68.6172 83.4893 58.871 90.4767 49.7965 98.2408C42.9517 104.097 36.2815 110.204 29.1875 115.761C23.3705 120.318 154.903 134.405 148.213 137.515C145.273 138.882 140.665 82.8379 140.473 86.9511C140.296 90.7335 86.429 114.516 89.3938 115.894C97.4663 119.647 46.7129 81.5391 51.7129 140.66C93.2911 159.66 121.546 152.606 133.804 152.16C144.619 151.767 163.066 117.172 123.713 133.049" stroke="#1D1D1D" stroke-linecap="round"/>
<path d="M1.25353 24.8939C1.25353 21.8448 0.571191 17.8262 1.59751 14.9183C2.668 11.8853 5.65146 8.09583 9.07135 8.00738C16.8191 7.80701 21.8266 16.3137 21.5017 23.299C21.4117 25.2343 20.5735 27.2575 20.329 29.2406C20.0917 31.1651 19.6643 33.7158 20.4072 35.573C21.2174 37.5985 22.2808 39.689 23.4874 41.4989" stroke="#1D1D1D" stroke-linecap="round"/>
<path d="M26.0156 46.0026C26.0156 46.8208 26.6515 46.1882 26.7974 45.7212C27.0389 44.9484 26.8171 45.9174 26.8756 46.2684C26.9811 46.9012 27.512 46.3649 27.4072 45.8932C27.3449 45.613 26.618 45.7212 27.4228 45.7212" stroke="#1D1D1D" stroke-linecap="round"/>
<path d="M187 185.138C187.646 183.652 188.844 181.611 190.157 180.646C193.004 178.556 199.283 182.11 201.908 183.185C203.943 184.019 207.454 185.714 208.028 188.296C208.328 189.646 206.614 190.312 205.619 190.64C202.959 191.516 200.995 192.823 199.011 194.806C196.186 197.632 194.324 199.668 194.324 203.871C194.324 206.709 194.324 209.546 194.324 212.383" stroke="#1D1D1D" stroke-linecap="round"/>
<path d="M194.034 219.413C194.165 220.458 194.023 217.704 193.774 218.762C193.581 219.581 193.756 220.292 194.62 220.292" stroke="#1D1D1D" stroke-linecap="round"/>
<path d="M76.0057 243.473C76.7018 244.263 75.0338 242.067 75.424 243.082C75.7259 243.867 76.271 244.356 76.9848 243.87" stroke="#1D1D1D" stroke-linecap="round"/>
<path d="M173.161 1.33224C177.388 1.91113 181.083 3.34942 183.704 6.79949C185.847 9.61985 188.608 13.2674 189.072 16.8706C189.722 21.9219 186.449 26.9693 181.537 28.4569C177.349 29.725 173.06 30.3113 168.838 31.4426C165.806 32.2549 164.343 34.768 162.862 37.3329" stroke="#1D1D1D" stroke-linecap="round"/>
<path d="M160.421 43.0478C159.907 42.7508 159.386 42.1843 158.908 42.7382C157.948 43.8516 157.299 43.9818 158.967 43.223" stroke="#1D1D1D" stroke-linecap="round"/>
<path d="M16.8281 138.538C17.5011 129.565 29.7115 127.103 36.7817 128.708C40.8621 129.634 41.3281 133.902 41.4202 137.448C41.4904 140.151 40.6367 141.86 39.3858 144.169C38.4531 145.891 36.7082 147.467 36.0331 149.247C35.5613 150.491 34.9704 152.241 34.7636 153.544C34.3447 156.183 34.8393 159.276 35.8703 161.682" stroke="#1D1D1D" stroke-linecap="round"/>
<path d="M36.4626 163.148C36.4626 165.248 36.1939 165.785 38.5133 165.785" stroke="#1D1D1D" stroke-linecap="round"/>
<path d="M69.2734 85.5117C71.4238 93.125 74.8924 101.561 80.9917 106.898" stroke="#1D1D1D" stroke-linecap="round"/>
<path d="M83.92 111.586C83.92 112.575 83.2926 114.547 84.5059 113.637" stroke="#1D1D1D" stroke-linecap="round"/>
</svg>
