<svg width="188" height="55" viewBox="0 0 188 55" fill="none" xmlns="http://www.w3.org/2000/svg">
<path opacity="0.922" fill-rule="evenodd" clip-rule="evenodd" d="M148.442 0.0669992C150.249 -0.191203 151.798 0.296892 153.091 1.53128C158.934 9.76838 165.132 17.7404 171.686 25.448C170.074 20.2951 168.442 15.0886 166.792 9.8289C166.682 8.5623 166.437 7.34206 166.058 6.16819C166.561 3.71942 168.029 2.90576 170.462 3.72771C172.763 5.85874 174.883 8.13668 176.824 10.561C177.639 11.0491 178.455 11.5372 179.27 12.0253C181.228 12.1879 183.185 12.3509 185.142 12.5134C186.414 14.4331 186.414 16.3855 185.142 18.3706C182.511 19.3614 179.901 19.2804 177.313 18.1265C177.15 18.2891 176.987 18.4521 176.824 18.6146C180.409 27.474 183.753 36.4223 186.855 45.4599C187.642 47.9355 186.908 49.7253 184.653 50.8289C182.593 49.9952 180.88 48.694 179.515 46.9241C173.317 39.1146 167.119 31.3051 160.92 23.4956C161.786 26.8717 162.683 30.2884 163.612 33.7456C163.484 34.569 163.158 35.3011 162.633 35.942C165.729 36.3876 168.665 37.2823 171.441 38.6265C172.887 40.2646 172.724 41.6473 170.952 42.7753C163.428 42.8359 155.925 42.5103 148.442 41.7991C147.485 40.7639 147.24 39.5437 147.708 38.1384C148.15 37.5522 148.721 37.1452 149.421 36.9182C147.406 35.3807 145.53 33.6724 143.794 31.7932C140.086 36.0943 136.987 40.8122 134.496 45.948C133.655 47.2751 132.513 48.2513 131.071 48.8765C130.331 48.507 129.678 48.0189 129.114 47.4122C126.282 41.8611 123.835 36.167 121.774 30.3289C121.475 32.1524 121.638 33.9423 122.263 35.698C124.175 41.0938 125.887 46.5444 127.401 52.0491C127.372 52.75 127.209 53.4007 126.912 54.0015C125.77 54.3271 124.628 54.3271 123.486 54.0015C122.263 52.7813 121.04 51.561 119.816 50.3408C113.703 41.2305 106.77 32.7704 99.0196 24.9599C97.4729 25.6495 96.0049 26.4632 94.6156 27.4003C97.8805 34.8892 101.143 42.3736 104.402 49.8527C103.061 52.6846 101.022 53.4983 98.2856 52.2932C93.772 45.188 88.8787 38.3547 83.6056 31.7932C82.8814 33.337 81.6581 34.2317 79.9356 34.4777C77.8154 34.6402 75.6946 34.8033 73.5743 34.9658C71.4697 40.1225 69.2677 45.2475 66.9683 50.3408C62.6959 53.1259 60.9016 51.9872 61.5856 46.9241C62.7972 42.7997 64.3469 38.8139 66.2343 34.9658C64.4399 34.8033 62.646 34.6402 60.8516 34.4777C57.8393 33.5181 57.187 31.7288 58.8943 29.1087C60.6554 28.6137 62.4493 28.2072 64.277 27.8884C62.7933 25.6749 61.407 23.397 60.1176 21.0551C58.9051 25.3611 56.2137 26.7438 52.0436 25.2039C51.6243 24.8676 51.2984 24.461 51.065 23.9837C44.3988 23.0143 38.0374 21.0619 31.981 18.1265C32.0842 19.9066 32.7365 21.6149 33.9383 23.2515C38.127 24.751 42.1234 26.6218 45.927 28.8646C46.1472 30.9722 45.4944 32.7621 43.9696 34.2337C42.2834 33.7178 40.6524 33.0671 39.0763 32.2813C38.8316 32.4438 38.587 32.6068 38.3423 32.7694C39.226 35.1835 40.3677 37.461 41.7676 39.6027C44.3454 40.7575 46.9556 41.6527 49.597 42.2872C47.9949 39.2864 47.0979 36.1138 46.9056 32.7694C48.4568 31.2529 50.2512 30.9273 52.2883 31.7932C55.0041 37.2101 57.4508 42.7421 59.6283 48.3884C60.0751 49.7805 59.6674 50.8382 58.405 51.561C52.9699 51.6538 47.8319 50.4335 42.991 47.9003C42.0578 49.6135 40.6715 50.1827 38.8316 49.6087C37.6103 48.3123 36.6316 46.848 35.8956 45.2158C34.4276 44.4837 32.9596 43.7515 31.4916 43.0194C31.3287 43.1819 31.1653 43.3449 31.0023 43.5075C33.1593 47.9477 32.0177 51.1203 27.577 53.0253C20.0804 53.8624 12.9851 52.4796 6.29097 48.8765C6.083 46.744 6.24595 44.6286 6.7803 42.5313C7.13507 42.2584 7.54269 42.0959 8.00364 42.0432C9.30967 42.6226 10.6142 43.0291 11.9183 43.2634C7.24957 36.146 3.41614 28.5805 0.41897 20.567C-0.679094 17.35 0.381291 16.1297 3.59964 16.9063C4.17069 17.4759 4.74125 18.045 5.3123 18.6146C4.82982 15.5416 4.25877 12.45 3.59964 9.34081C3.59474 6.65921 4.81808 5.84556 7.26964 6.90033C11.9667 16.7721 17.757 25.8828 24.641 34.2337C26.7524 33.5308 28.791 33.6938 30.7576 34.7218C30.3534 32.3638 29.4565 30.1673 28.0663 28.1325C25.3255 27.3481 22.6342 26.4534 19.9923 25.448C19.847 23.7469 20.1729 22.1201 20.971 20.567C22.3524 20.362 23.7386 20.1995 25.1303 20.0789C24.2334 17.964 23.3359 15.8486 22.439 13.7337C19.7144 12.3177 17.6753 10.2838 16.3223 7.63248C16.5954 5.97734 17.574 5.08267 19.2583 4.94795C20.2096 5.28425 21.1882 5.5283 22.1943 5.68009C30.1509 9.57265 38.3066 12.9893 46.661 15.9301C48.8331 16.9639 50.8722 18.1841 52.7776 19.5908C53.1554 19.52 53.4818 19.3575 53.7563 19.1027C54.1111 14.0065 53.2136 9.12556 51.065 4.45986C51.7099 2.22536 53.1779 1.49321 55.469 2.26343C57.1856 3.81313 58.7353 5.52146 60.1176 7.38843C63.7059 12.92 67.2947 18.4521 70.883 23.9837C73.2347 18.4116 75.6814 12.8795 78.223 7.38843C80.3315 5.84214 82.0442 6.1677 83.361 8.36462C84.7634 7.73253 86.1497 7.73253 87.5203 8.36462C89.2472 12.3934 90.8781 16.4607 92.4136 20.567C99.4786 16.4328 106.737 12.6091 114.189 9.09676C114.332 7.27275 114.414 5.40188 114.434 3.48367C116.027 1.58839 117.822 1.26283 119.816 2.50748C124.279 13.2573 128.357 24.1579 132.05 35.2099C133.957 33.6289 134.691 31.595 134.252 29.1087C134.201 26.8903 133.957 24.6938 133.518 22.5194C132.194 18.0719 130.971 13.598 129.848 9.09676C130.538 6.58746 132.17 5.77381 134.741 6.65628C138.411 11.9438 142.081 17.2318 145.751 22.5194C148.687 26.0986 151.949 29.3527 155.538 32.2813C152.635 23.6405 150.026 14.8548 147.708 5.92414C147.216 3.82436 147.461 1.87198 148.442 0.0669992ZM81.893 12.2694C83.3747 15.8876 84.6797 19.6299 85.8076 23.4956C84.6876 24.8578 83.4642 26.1596 82.1376 27.4003C81.9747 28.051 81.8112 28.7021 81.6483 29.3527C79.8158 28.9637 77.9396 28.7197 76.021 28.6206C78.3184 23.2911 80.2757 17.8405 81.893 12.2694ZM116.146 15.198C116.634 15.1833 116.961 15.4274 117.125 15.9301C118.055 18.7957 119.034 21.6428 120.061 24.4718C116.32 25.4074 114.444 27.8479 114.434 31.7932C111.416 28.458 108.399 25.1224 105.381 21.7872C109.082 19.7011 112.671 17.5047 116.146 15.198ZM13.8756 29.8408C17.5584 33.4361 20.6578 37.5039 23.173 42.0432C21.7872 43.917 19.9928 44.4051 17.7903 43.5075C15.6842 39.1883 14.3792 34.6329 13.8756 29.8408Z" fill="#FEFFFE"/>
</svg>
